HIERARCHY
ROOT Hips
{
 OFFSET 0.000000 0.000000 0.000000
 CHANNELS 6 Xposition Yposition Zposition Yrotation Xrotation Zrotation
 JOINT Chest
 {
  OFFSET 0.000000 9.585900 0.002600
  CHANNELS 3 Yrotation Xrotation Zrotation
  JOINT Chest2
  {
   OFFSET 0.000000 9.601200 -0.005300
   CHANNELS 3 Yrotation Xrotation Zrotation
   JOINT Chest3
   {
    OFFSET 0.000000 9.561800 0.000000
    CHANNELS 3 Yrotation Xrotation Zrotation
    JOINT Chest4
    {
     OFFSET 0.000000 9.552100 0.000000
     CHANNELS 3 Yrotation Xrotation Zrotation
     JOINT Neck
     {
      OFFSET 0.000000 14.453000 0.000000
      CHANNELS 3 Yrotation Xrotation Zrotation
      JOINT Head
      {
       OFFSET 0.000000 8.936500 -0.011300
       CHANNELS 3 Yrotation Xrotation Zrotation
       End Site
       {
        OFFSET 0.000000 17.073600 -0.006000
       }
      }
     }
     JOINT RightCollar
     {
      OFFSET -2.921100 9.558500 0.000000
      CHANNELS 3 Yrotation Xrotation Zrotation
      JOINT RightShoulder
      {
       OFFSET -13.519700 0.000000 0.000000
       CHANNELS 3 Yrotation Xrotation Zrotation
       JOINT RightElbow
       {
        OFFSET 0.000000 -29.696600 0.000000
        CHANNELS 3 Yrotation Xrotation Zrotation
        JOINT RightWrist
        {
         OFFSET 0.000000 -24.004700 0.000000
         CHANNELS 3 Yrotation Xrotation Zrotation
         End Site
         {
          OFFSET 0.000000 -17.728500 0.000000
         }
        }
       }
      }
     }
     JOINT LeftCollar
     {
      OFFSET 2.921100 9.558500 0.000000
      CHANNELS 3 Yrotation Xrotation Zrotation
      JOINT LeftShoulder
      {
       OFFSET 13.519700 0.000000 0.000000
       CHANNELS 3 Yrotation Xrotation Zrotation
       JOINT LeftElbow
       {
        OFFSET 0.000000 -29.696600 0.000000
        CHANNELS 3 Yrotation Xrotation Zrotation
        JOINT LeftWrist
        {
         OFFSET 0.000000 -24.004700 0.000000
         CHANNELS 3 Yrotation Xrotation Zrotation
         End Site
         {
          OFFSET 0.000000 -17.728500 0.000000
         }
        }
       }
      }
     }
    }
   }
  }
 }
 JOINT RightHip
 {
  OFFSET -7.771700 -0.012900 -0.001300
  CHANNELS 3 Yrotation Xrotation Zrotation
  JOINT RightKnee
  {
   OFFSET 0.000000 -40.869800 0.001200
   CHANNELS 3 Yrotation Xrotation Zrotation
   JOINT RightAnkle
   {
    OFFSET 0.000000 -39.717900 0.002100
    CHANNELS 3 Yrotation Xrotation Zrotation
    JOINT RightToe
    {
     OFFSET 0.000000 -4.965400 11.033500
     CHANNELS 3 Yrotation Xrotation Zrotation
     End Site
     {
      OFFSET 0.000000 -1.423100 5.872300
     }
    }
   }
  }
 }
 JOINT LeftHip
 {
  OFFSET 7.771700 -0.012900 -0.001300
  CHANNELS 3 Yrotation Xrotation Zrotation
  JOINT LeftKnee
  {
   OFFSET 0.000000 -40.869800 0.001200
   CHANNELS 3 Yrotation Xrotation Zrotation
   JOINT LeftAnkle
   {
    OFFSET 0.000000 -39.717900 0.002100
    CHANNELS 3 Yrotation Xrotation Zrotation
    JOINT LeftToe
    {
     OFFSET 0.000000 -4.965400 11.033500
     CHANNELS 3 Yrotation Xrotation Zrotation
     End Site
     {
      OFFSET 0.000000 -1.423100 5.872300
     }
    }
   }
  }
 }
}
MOTION
Frames: 7
Frame Time: 0.008333
0.000000 85.388000 0.000000 0.000000 -5.767877 0.000000 0.000000 11.653817 0.000000 0.000000 -5.885947 0.000000 0.000000 -0.000000 0.000000 0.000000 -0.000000 0.000000 0.000000 12.528835 0.000000 0.000000 0.711642 0.000000 0.000000 -0.000000 0.000000 0.000000 0.000000 -90.000000 0.000000 -2.309062 0.000000 0.000000 2.309062 0.000000 0.000000 -0.000000 0.000000 0.000000 -0.000000 90.000000 0.000000 -2.309062 0.000000 0.000000 2.309062 0.000000 0.000000 8.520406 0.000000 0.000000 1.905762 0.000000 -0.000000 -4.658285 0.000000 0.000000 -0.000000 0.000000 0.000000 8.520406 0.000000 0.000000 1.905762 0.000000 -0.000000 -4.658285 0.000000 0.000000 -0.000000 0.000000
-7.441308 55.537828 25.890741 -179.349549 -30.792381 -12.027760 0.147478 12.439623 6.586148 -0.026128 7.180996 2.282896 0.016832 9.008915 2.868672 -0.023917 7.198129 2.287367 2.304986 25.455818 -0.778871 2.698859 1.928827 -1.396933 1.047388 2.739597 -2.540140 -9.094363 -20.318754 8.075102 -44.630848 -65.264540 51.510214 7.126052 -5.992112 -0.168079 -10.676667 -0.941030 -3.975532 -0.875595 -13.030314 2.480622 -56.627149 -75.535753 69.511355 18.909285 -11.079236 -11.160660 -19.792755 -33.263813 9.474355 37.791931 85.800354 34.347270 1.346994 -19.315420 -1.433193 -0.759394 1.885433 -0.339126 -17.701251 -47.013383 17.259709 169.106616 79.093981 164.773519 -0.988370 -15.980228 1.003835 -1.295899 -2.611913 -0.572646
-7.443193 55.535374 25.880063 -179.326083 -30.774686 -12.018426 0.124335 12.449570 6.567562 -0.027093 7.172851 2.286451 0.014835 8.995272 2.864464 -0.024460 7.196359 2.287410 2.311202 25.420895 -0.792563 2.708917 1.870746 -1.425545 1.047808 2.720507 -2.552490 -9.163971 -20.269114 8.066209 -44.142391 -65.523137 51.164607 7.077967 -6.021799 -0.172705 -10.673860 -0.954058 -3.957597 -0.818909 -12.999014 2.467610 -58.499436 -74.914695 71.416438 18.762874 -11.176423 -11.372261 -19.804445 -33.282548 9.462551 37.928384 85.820001 34.475872 1.334014 -19.336514 -1.426281 -0.755245 1.882555 -0.336463 -17.708863 -47.030036 17.233811 169.122101 79.085075 164.787426 -0.997871 -15.991905 1.000406 -1.283599 -2.610684 -0.566822
-7.442454 55.531836 25.871398 -179.324321 -30.743305 -12.015043 0.117131 12.431234 6.564285 -0.029003 7.201581 2.289622 0.017119 8.964227 2.859521 -0.026032 7.190669 2.287147 2.316150 25.368302 -0.814154 2.716239 1.848722 -1.429163 1.042686 2.702246 -2.561842 -9.231597 -20.210107 8.051036 -43.534682 -65.863395 50.717771 7.030789 -6.079591 -0.273863 -10.663441 -0.968996 -3.946459 -0.693771 -12.913691 2.504057 -60.494597 -74.316195 73.371111 18.635096 -11.374144 -11.521778 -19.812224 -33.312887 9.475475 38.026945 85.834405 34.572646 1.324136 -19.353993 -1.422587 -0.754134 1.883636 -0.335238 -17.734278 -47.056689 17.244832 169.138949 79.074121 164.797204 -0.994513 -16.009869 0.996164 -1.280484 -2.606255 -0.566021
-7.440692 55.529536 25.861536 -179.330822 -30.724872 -12.016695 0.119813 12.425012 6.570820 -0.030667 7.207997 2.291362 0.007941 8.986904 2.866740 -0.031080 7.194768 2.291544 2.325111 25.318655 -0.839875 2.723951 1.791020 -1.447175 1.048330 2.653971 -2.587626 -9.294170 -20.145797 8.026769 -42.801920 -66.292749 50.157059 6.991518 -6.168679 -0.453884 -10.634994 -1.021117 -3.952987 -0.596765 -12.841133 2.553472 -62.397917 -73.652242 75.259926 18.525365 -11.676264 -11.608689 -19.807496 -33.329215 9.494421 38.050538 85.849642 34.596785 1.315823 -19.368863 -1.417057 -0.753194 1.881934 -0.333760 -17.772260 -47.071221 17.268853 169.125672 79.051500 164.770804 -0.979630 -16.012708 0.989368 -1.290146 -2.621795 -0.570484
-7.439562 55.527803 25.852190 -179.335191 -30.710524 -12.019893 0.122382 12.437772 6.579412 -0.034862 7.214241 2.292959 0.004549 8.997056 2.870452 -0.028348 7.178704 2.288797 2.330174 25.277248 -0.852808 2.732079 1.748335 -1.455176 1.036347 2.632398 -2.601382 -9.346977 -20.072275 7.995257 -41.946732 -66.808780 49.476047 6.968860 -6.287454 -0.678664 -10.595385 -1.052926 -3.934391 -0.538720 -12.772926 2.591514 -64.193571 -72.912800 77.063835 18.446651 -12.083931 -11.647884 -19.804316 -33.339552 9.508847 38.061343 85.861241 34.608696 1.315359 -19.384350 -1.413788 -0.751068 1.882269 -0.333044 -17.802010 -47.081129 17.281516 169.112167 79.033802 164.755120 -0.968576 -16.018392 0.975461 -1.293958 -2.634886 -0.571295
-7.438974 55.526309 25.844967 -179.341778 -30.694084 -12.023690 0.121856 12.485956 6.591356 -0.032460 7.196320 2.292696 0.004862 8.995216 2.870998 -0.029699 7.184041 2.290501 2.335571 25.226406 -0.864841 2.742249 1.692506 -1.460014 1.041939 2.587637 -2.614632 -9.414372 -19.976574 7.953611 -40.953546 -67.414173 48.655911 6.972221 -6.421883 -0.921072 -10.563217 -1.097301 -3.927283 -0.478829 -12.701202 2.656310 -65.904640 -72.105678 78.792181 18.419955 -12.597221 -11.651125 -19.802806 -33.352807 9.523690 38.077794 85.869159 34.627753 1.318496 -19.394024 -1.412478 -0.755635 1.880235 -0.333611 -17.836229 -47.094979 17.296365 169.060706 79.014403 164.700839 -0.954922 -16.016908 0.965000 -1.299732 -2.650477 -0.577643
